# xmcd
#
# Track frame offsets: 
#        150
#        15121
#        36246
#        57010
#        79726
#        100680
#        120810
#        139353
#        162942
#        178352
#
# Disc length: 2638 seconds
#
# Revision: 0
# Processed by: cddbd v1.5.1PL2 Copyright (c) Steve Scherf et al.
# Submitted via: ExactAudioCopy v0.95b3
#
DISCID=730a4c0a
DTITLE=Mel Waiters - Throw Back Days
DYEAR=2006
DGENRE=Blues
TTITLE0=Throw Back Days
TTITLE1=Get It On Song
TTITLE2=Friday Night Fish Fry
TTITLE3=I Like Your Sister
TTITLE4=Half Pint
TTITLE5=Blues Radio
TTITLE6=Ladies Party Night
TTITLE7=If He Don't Care
TTITLE8=Bump And Grind
TTITLE9=How Do You Do It
EXTD=
EXTT0=
EXTT1=
EXTT2=
EXTT3=
EXTT4=
EXTT5=
EXTT6=
EXTT7=
EXTT8=
EXTT9=
PLAYORDER=
